{"asset":{"generator":"3D Builder","version":"2.0"},"scene":0,"scenes":[{"nodes":[0]}],"nodes":[{"mesh":0,"matrix":[0.039370074868202209,0,0,0,0,-4.6932786545994531E-9,-0.039370071142911911,0,0,0.039370071142911911,-4.6932786545994531E-9,0,0,4.3089994505862705E-6,-5.1367281738920467E-13,1]}],"meshes":[{"primitives":[{"attributes":{"POSITION":0},"mode":4,"indices":8,"material":0},{"attributes":{"POSITION":1},"mode":4,"indices":9,"material":1},{"attributes":{"POSITION":2},"mode":4,"indices":10,"material":2},{"attributes":{"POSITION":3},"mode":4,"indices":11,"material":3},{"attributes":{"POSITION":4,"TEXCOORD_0":6},"mode":4,"indices":12,"material":4},{"attributes":{"POSITION":5,"TEXCOORD_0":7},"mode":4,"indices":13,"material":5}]}],"materials":[{"name":"08_-_Default","pbrMetallicRoughness":{"baseColorFactor":[0.3185468316078186,0.3185468316078186,0.3185468316078186,1],"metallicFactor":0,"roughnessFactor":1},"alphaMode":"OPAQUE"},{"name":"09_-_Default","pbrMetallicRoughness":{"baseColorFactor":[0.21404114365577698,0.21404114365577698,0.21404114365577698,1],"metallicFactor":0,"roughnessFactor":1},"alphaMode":"OPAQUE"},{"name":"02_-_Default","pbrMetallicRoughness":{"baseColorFactor":[1,1,1,1],"metallicFactor":0,"roughnessFactor":1},"alphaMode":"OPAQUE"},{"name":"03_-_Default","pbrMetallicRoughness":{"baseColorFactor":[0.3185468316078186,0.3185468316078186,0.3185468316078186,1],"metallicFactor":0,"roughnessFactor":1},"alphaMode":"OPAQUE"},{"pbrMetallicRoughness":{"baseColorFactor":[1,1,1,1],"metallicFactor":0,"roughnessFactor":1,"baseColorTexture":{"index":0,"texCoord":0}},"alphaMode":"OPAQUE"},{"pbrMetallicRoughness":{"baseColorFactor":[1,1,1,1],"metallicFactor":0,"roughnessFactor":1,"baseColorTexture":{"index":1,"texCoord":0}},"alphaMode":"OPAQUE"}],"textures":[{"source":0,"sampler":0},{"source":1,"sampler":0}],"images":[{"uri":"metal2.jpg"},{"uri":"metal.jpg"}],"samplers":[{"magFilter":9729,"wrapS":10497,"wrapT":10497}],"accessors":[{"bufferView":0,"byteOffset":0,"count":12808,"componentType":5126,"type":"VEC3","min":[-12.497696876525879,6.0233888626098633,0.12054054439067841],"max":[-11.74661922454834,6.7302203178405762,0.70529937744140625]},{"bufferView":0,"byteOffset":153696,"count":2056,"componentType":5126,"type":"VEC3","min":[-12.498458862304688,6.0469603538513184,0.30773857235908508],"max":[-11.746721267700195,6.70771598815918,0.4861481785774231]},{"bufferView":0,"byteOffset":178368,"count":738,"componentType":5126,"type":"VEC3","min":[-12.025815963745117,6.0544276237487793,0.31815257668495178],"max":[-11.982331275939941,6.0644865036010742,0.38632616400718689]},{"bufferView":0,"byteOffset":187224,"count":1404,"componentType":5126,"type":"VEC3","min":[-12.490839004516602,6.0469603538513184,0.13705055415630341],"max":[-11.749260902404785,6.70771598815918,0.70535022020339966]},{"bufferView":0,"byteOffset":204072,"count":11826,"componentType":5126,"type":"VEC3","min":[-12.498509407043457,5.9870672225952148,-0.0001094485996873118],"max":[-11.746669769287109,6.7711143493652344,0.77113622426986694]},{"bufferView":0,"byteOffset":345984,"count":2010,"componentType":5126,"type":"VEC3","min":[-12.495614051818848,6.0469603538513184,0.13252934813499451],"max":[-11.752715110778809,6.70771598815918,0.44459378719329834]},{"bufferView":1,"byteOffset":0,"count":11826,"componentType":5126,"type":"VEC2"},{"bufferView":1,"byteOffset":94608,"count":2010,"componentType":5126,"type":"VEC2"},{"bufferView":2,"byteOffset":0,"count":53325,"componentType":5125,"type":"SCALAR"},{"bufferView":2,"byteOffset":213300,"count":7803,"componentType":5125,"type":"SCALAR"},{"bufferView":2,"byteOffset":244512,"count":2430,"componentType":5125,"type":"SCALAR"},{"bufferView":2,"byteOffset":254232,"count":4758,"componentType":5125,"type":"SCALAR"},{"bufferView":2,"byteOffset":273264,"count":29538,"componentType":5125,"type":"SCALAR"},{"bufferView":2,"byteOffset":391416,"count":5244,"componentType":5125,"type":"SCALAR"}],"bufferViews":[{"buffer":0,"byteOffset":0,"byteLength":370104,"byteStride":12,"target":34962},{"buffer":0,"byteOffset":370104,"byteLength":110688,"byteStride":8,"target":34962},{"buffer":0,"byteOffset":480792,"byteLength":412392,"target":34963}],"buffers":[{"byteLength":893184,"uri":"Corridor.bin"}]}